<?xml version="1.0" encoding="utf-8"?>
<!DOCTYPE svg PUBLIC "-//W3C//DTD SVG 1.1//EN" "http://www.w3.org/Graphics/SVG/1.1/DTD/svg11.dtd">
<svg version="1.1" id="Layer1" xmlns="http://www.w3.org/2000/svg" xmlns:xlink="http://www.w3.org/1999/xlink" x="0px" y="0px"
	 width="113.889px" height="39.162px" viewBox="0 0 113.889 39.162" enable-background="new 0 0 113.889 39.162"
	 xml:space="preserve">
<g>
	<path d="M90.64,39.162H76.725c3.639-2.625,7.405-5.08,11.088-7.646h4.103c3.945,0,5.811-1.175,6.808-3.293
		c0.221-0.471,0.408-1,0.558-1.587l4.051-14.115c0.919-3.114,0.888-4.879-4.017-4.879h-6.334l-6.466,20.969L74.765,36.59L86.019,0
		h16.951c11.831,0,11.721,4.939,10.207,10.113L108.302,27.4c-0.205,0.707-0.499,1.472-0.829,2.176
		C105.167,34.517,99.679,39.162,90.64,39.162"/>
	<path d="M22.715,0h11.709c-1.098,1.033-2.168,2.098-3.24,3.163c-1.451,1.442-3.053,3.153-4.778,4.655H21.38
		c-4.442,0-6.031,1.706-6.969,4.764l-4.299,13.996c-0.94,3.059-0.397,4.763,4.042,4.763h14.213l4.223-13.749h8.883l-6.627,21.57
		H10.688c-9.709,0-11.805-4.939-10.199-10.174l5.78-18.816C7.893,4.88,13.005,0,22.715,0"/>
	<polygon points="33.933,13.51 42.816,13.51 43.372,11.774 36.383,5.419 	"/>
	<path d="M57.394,26.932h-5.909l-3.699,12.23h-9.133L50.657,0h15.244c8.275,0,11.946,3.173,11.254,8.937
		c-0.091,0.764-0.297,1.528-0.52,2.41l-1.377,4.703c-1.403,4.881-3.532,8-8.593,9.704l5.758,13.408h-9.702L57.394,26.932z
		 M67.88,12.111c0.196-0.646,0.34-1.352,0.377-1.646c0.247-1.998-0.871-2.822-3.831-2.822h-7.081l-3.553,11.82h7.35
		c3.79,0,4.957-1.411,5.852-4.412L67.88,12.111z"/>
</g>
</svg>
